REM DIRINDEX 1\2,1\4,1\3\5,1\3\6,1\3\7
REM DIRNAME folder01,folder02,folder03,folder04,folder05,folder06,folder07
TITLE ""
FILE "CD1Track34.mp3" MP3
  TRACK 01 AUDIO
    TITLE "0:"
    INDEX 01 00:00:00
  TRACK 02 AUDIO
    TITLE "5:cjc083_0702"
    INDEX 01 00:00:29
  TRACK 03 AUDIO
    TITLE "0:"
    INDEX 01 00:02:10
  TRACK 04 AUDIO
    TITLE "6:cjc083_0703"
    INDEX 01 00:02:55
  TRACK 05 AUDIO
    TITLE "0:"
    INDEX 01 00:04:54
  TRACK 06 AUDIO
    TITLE "5:cjc083_0704"
    INDEX 01 00:05:14
  TRACK 07 AUDIO
    TITLE "0:"
    INDEX 01 00:06:37
  TRACK 08 AUDIO
    TITLE "6:cjc083_0705"
    INDEX 01 00:07:02
  TRACK 09 AUDIO
    TITLE "0:"
    INDEX 01 00:08:11
  TRACK 10 AUDIO
    TITLE "5:cjc083_0706"
    INDEX 01 00:08:46
  TRACK 11 AUDIO
    TITLE "0:"
    INDEX 01 00:09:69
  TRACK 12 AUDIO
    TITLE "6:cjc083_0707"
    INDEX 01 00:10:39
  TRACK 13 AUDIO
    TITLE "0:"
    INDEX 01 00:11:66
  TRACK 14 AUDIO
    TITLE "5:cjc083_0708"
    INDEX 01 00:12:36
  TRACK 15 AUDIO
    TITLE "0:"
    INDEX 01 00:13:47
  TRACK 16 AUDIO
    TITLE "6:cjc083_0709"
    INDEX 01 00:14:17
  TRACK 17 AUDIO
    TITLE "0:"
    INDEX 01 00:15:56
  TRACK 18 AUDIO
    TITLE "5:cjc083_0710"
    INDEX 01 00:16:20
  TRACK 19 AUDIO
    TITLE "0:"
    INDEX 01 00:17:39
  TRACK 20 AUDIO
    TITLE "6:cjc083_0711"
    INDEX 01 00:18:23
  TRACK 21 AUDIO
    TITLE "0:"
    INDEX 01 00:19:58
  TRACK 22 AUDIO
    TITLE "5:cjc083_0712"
    INDEX 01 00:20:22
  TRACK 23 AUDIO
    TITLE "0:"
    INDEX 01 00:21:31
  TRACK 24 AUDIO
    TITLE "6:cjc083_0713"
    INDEX 01 00:21:74
  TRACK 25 AUDIO
    TITLE "0:"
    INDEX 01 00:22:60
  TRACK 26 AUDIO
    TITLE "5:cjc083_0714"
    INDEX 01 00:23:32
  TRACK 27 AUDIO
    TITLE "0:"
    INDEX 01 00:24:31
  TRACK 28 AUDIO
    TITLE "6:cjc083_0715"
    INDEX 01 00:25:09
  TRACK 29 AUDIO
    TITLE "0:"
    INDEX 01 00:26:15
  TRACK 30 AUDIO
    TITLE "5:cjc083_0716"
    INDEX 01 00:26:66
  TRACK 31 AUDIO
    TITLE "0:"
    INDEX 01 00:28:04
  TRACK 32 AUDIO
    TITLE "6:cjc083_0717"
    INDEX 01 00:28:51
  TRACK 33 AUDIO
    TITLE "0:"
    INDEX 01 00:31:37
  TRACK 34 AUDIO
    TITLE "5:cjc083_0718"
    INDEX 01 00:32:00
  TRACK 35 AUDIO
    TITLE "0:"
    INDEX 01 00:33:19
  TRACK 36 AUDIO
    TITLE "6:cjc083_0719"
    INDEX 01 00:33:58
  TRACK 37 AUDIO
    TITLE "0:"
    INDEX 01 00:35:39
  TRACK 38 AUDIO
    TITLE "5:cjc083_0720"
    INDEX 01 00:36:11
  TRACK 39 AUDIO
    TITLE "0:"
    INDEX 01 00:37:26
  TRACK 40 AUDIO
    TITLE "6:cjc083_0721"
    INDEX 01 00:38:02
  TRACK 41 AUDIO
    TITLE "0:"
    INDEX 01 00:39:11
  TRACK 42 AUDIO
    TITLE "5:cjc083_0722"
    INDEX 01 00:39:58
  TRACK 43 AUDIO
    TITLE "0:"
    INDEX 01 00:40:70
  TRACK 44 AUDIO
    TITLE "6:cjc083_0723"
    INDEX 01 00:41:36
  TRACK 45 AUDIO
    TITLE "0:"
    INDEX 01 00:42:47
  TRACK 46 AUDIO
    TITLE "5:cjc083_0724"
    INDEX 01 00:43:25
  TRACK 47 AUDIO
    TITLE "0:"
    INDEX 01 00:44:36
  TRACK 48 AUDIO
    TITLE "6:cjc083_0725"
    INDEX 01 00:45:10
  TRACK 49 AUDIO
    TITLE "0:"
    INDEX 01 00:46:72
  TRACK 50 AUDIO
    TITLE "5:cjc083_0726"
    INDEX 01 00:47:36
  TRACK 51 AUDIO
    TITLE "0:"
    INDEX 01 00:49:12
  TRACK 52 AUDIO
    TITLE "6:cjc083_0727"
    INDEX 01 00:49:57
  TRACK 53 AUDIO
    TITLE "0:"
    INDEX 01 00:51:65
  TRACK 54 AUDIO
    TITLE "5:cjc083_0728"
    INDEX 01 00:52:26
  TRACK 55 AUDIO
    TITLE "0:"
    INDEX 01 00:53:43
  TRACK 56 AUDIO
    TITLE "6:cjc083_0729"
    INDEX 01 00:54:11
  TRACK 57 AUDIO
    TITLE "0:"
    INDEX 01 00:56:08
  TRACK 58 AUDIO
    TITLE "5:cjc083_0730"
    INDEX 01 00:56:49
  TRACK 59 AUDIO
    TITLE "0:"
    INDEX 01 00:58:09
  TRACK 60 AUDIO
    TITLE "6:cjc083_0731"
    INDEX 01 00:58:54
  TRACK 61 AUDIO
    TITLE "0:"
    INDEX 01 01:01:15
  TRACK 62 AUDIO
    TITLE "7:cjc083_0732"
    INDEX 01 01:02:48
  TRACK 63 AUDIO
    TITLE "0:"
    INDEX 01 01:13:08
